# xmcd CD database file
# Copyright (C) 1993-1998 Ti Kan
#
# Track frame offsets:
# 183
# 13935
# 24838
# 37338
# 49885
# 72148
# 89423
# 103128
# 115928
# 127033
# 137333
# 150713
# 166038
# 178993
# 191900
# 204735
#
# Disc length: 2883 seconds
# Revision: 0
# Processed by: cddbd v1.4b41PL1 Copyright (c) Steve Scherf et al.
# Submitted via: CDSpectrumPro v3.2.327
#
DISCID=e60b4110
DTITLE=Howlin' Wolf - Hownlin' For My Baby
DYEAR=1900
DGENRE=
TTITLE0=Smokestack Lightnin'
TTITLE1=The Red Rooster
TTITLE2=Spoonful
TTITLE3=Killing Floor
TTITLE4=Wang Dang Doodle
TTITLE5=Sittin' On Top Of The World
TTITLE6=Highway 49
TTITLE7=Back Door Man
TTITLE8=You'll Be Mine
TTITLE9=Shake For Me
TTITLE10=Tail Dragger
TTITLE11=Goin' Down Slow
TTITLE12=Baby, How Long
TTITLE13=Evil
TTITLE14=I'm The Wolf
TTITLE15=Howlin' For My Baby
EXTD=
EXTT0=
EXTT1=
EXTT2=
EXTT3=
EXTT4=
EXTT5=
EXTT6=
EXTT7=
EXTT8=
EXTT9=
EXTT10=
EXTT11=
EXTT12=
EXTT13=
EXTT14=
EXTT15=
PLAYORDER=
